{"title":"epizode koje nedostaju","uid":7150021,"size":1153439798,"categoryP":"video","categoryS":"tv_shows","magnet":"?xt=urn:btih:63f0056d3e29e94b292da8c5479f9f574a3dcb5b&amp;dn=epizode+koje+nedostaju&amp;tr=udp%3A%2F%2Ftracker.openbittorrent.com%3A80&amp;tr=udp%3A%2F%2Fopen.demonii.com%3A1337&amp;tr=udp%3A%2F%2Ftracker.coppersurfer.tk%3A6969&amp;tr=udp%3A%2F%2Fexodus.desync.com%3A6969","seeders":0,"leechers":0,"uploader":"0refat","files":-1,"time":1333241255,"description":"Pustinje svijeta (epizode koje nedostaju):\n Pustinje_svijeta_-_E03_-_Namib\n Pustinje_svijeta_E02_-_Zelena_Sahara\n Pustinje_svijeta_E04_-_Australija\n\n-----------------------------------------------\n\nVideo\nID                                       : 0\nFormat                                   : MPEG-4 Visual\nFormat profile                           : Advanced Simple@L5\nFormat settings, BVOP                    : 2\nFormat settings, QPel                    : No\nFormat settings, GMC                     : No warppoints\nFormat settings, Matrix                  : Default (H.263)\nMuxing mode                              : Packed bitstream\nCodec ID                                 : XVID\nCodec ID/Hint                            : XviD\nDuration                                 : 32mn 10s\nBit rate                                 : 1 386 Kbps\nWidth                                    : 704 pixels\nHeight                                   : 384 pixels\nDisplay aspect ratio                     : 16:9\nFrame rate                               : 25.000 fps\nColor space                              : YUV\nChroma subsampling                       : 4:2:0\nBit depth                                : 8 bits\nScan type                                : Progressive\nCompression mode                         : Lossy\nBits/(Pixel*Frame)                       : 0.205\nStream size                              : 319 MiB (91%)\nWriting library                          : XviD 1.3.0.dev55\n\nAudio\nID                                       : 1\nFormat                                   : MPEG Audio\nFormat version                           : Version 1\nFormat profile                           : Layer 3\nMode                                     : Joint stereo\nMode extension                           : MS Stereo\nCodec ID                                 : 55\nCodec ID/Hint                            : MP3\nDuration                                 : 32mn 10s\nBit rate mode                            : Constant\nBit rate                                 : 128 Kbps\nChannel(s)                               : 2 channels\nSampling rate                            : 48.0 KHz\nCompression mode                         : Lossy\nStream size                              : 29.5 MiB (8%)\nAlignment                                : Aligned on interleaves\nInterleave, duration                     : 40 ms (1.00 video frame)\nInterleave, preload duration             : 504 ms","torrent":{"xt":"urn:btih:63f0056d3e29e94b292da8c5479f9f574a3dcb5b","amp;dn":"epizode+koje+nedostaju","amp;tr":["udp%3A%2F%2Ftracker.openbittorrent.com%3A80","udp%3A%2F%2Fopen.demonii.com%3A1337","udp%3A%2F%2Ftracker.coppersurfer.tk%3A6969","udp%3A%2F%2Fexodus.desync.com%3A6969"],"infoHash":"63f0056d3e29e94b292da8c5479f9f574a3dcb5b","infoHashBuffer":{"type":"Buffer","data":[99,240,5,109,62,41,233,75,41,45,168,197,71,159,159,87,74,61,203,91]},"announce":[],"urlList":[]}}